<?xml version="1.0" standalone="no"?><!DOCTYPE svg PUBLIC "-//W3C//DTD SVG 1.1//EN" "http://www.w3.org/Graphics/SVG/1.1/DTD/svg11.dtd"><svg class="icon" width="200px" height="200.00px" viewBox="0 0 1024 1024" version="1.1" xmlns="http://www.w3.org/2000/svg"><path fill="#333333" d="M512 85.504c-235.552 0-426.496 190.944-426.496 426.496s190.976 426.496 426.496 426.496c235.552 0 426.496-190.944 426.496-426.496s-190.944-426.496-426.496-426.496zM512 904.384c-216.352 0-392.384-176.032-392.384-392.384s176-392.384 392.384-392.384c216.352 0 392.384 176.032 392.384 392.384s-176 392.384-392.384 392.384zM725.344 359.712l-273.888 265.568-95.936-95.936c-9.984-9.984-26.176-9.984-36.192 0s-9.984 26.176 0 36.192l113.76 113.76c4.992 4.992 11.552 7.488 18.08 7.488 6.4 0 12.832-2.4 17.792-7.2l291.968-283.136c10.144-9.856 10.4-26.048 0.576-36.192-9.888-10.176-26.048-10.4-36.192-0.576z" /></svg>